PathFileType	4	(X/Y/Z)	c:/Users/goper/Files/vsCode/490R/osim_files/A01/A01_Fast_05.trc
DataRate	CameraRate	NumFrames	NumMarkers	Units                	OrigDataRate	OrigDataStartFrame	OrigNumFrames
120.00	120.00	4	36	mm	120.0	1195	1365
                Frame#	Time	Mobility_markerset:LPSIS			Mobility_markerset:LASIS			Mobility_markerset:LTH1			Mobility_markerset:LTH2			Mobility_markerset:LTH3			Mobility_markerset:LTH4			Mobility_markerset:LLFE			Mobility_markerset:LMFE			Mobility_markerset:LSH1			Mobility_markerset:LSH2			Mobility_markerset:LSH3			Mobility_markerset:LSH4			Mobility_markerset:LLMAL			Mobility_markerset:LMMAL			Mobility_markerset:LCAL			Mobility_markerset:LMTP5			Mobility_markerset:LTOE			Mobility_markerset:LMTP1			Mobility_markerset:RPSIS			Mobility_markerset:RASIS			Mobility_markerset:RTH1			Mobility_markerset:RTH2			Mobility_markerset:RTH3			Mobility_markerset:RTH4			Mobility_markerset:RLFE			Mobility_markerset:RMFE			Mobility_markerset:RSH1			Mobility_markerset:RSH2			Mobility_markerset:RSH3			Mobility_markerset:RSH4			Mobility_markerset:RLMAL			Mobility_markerset:RMMAL			Mobility_markerset:RCAL			Mobility_markerset:RMTP1			Mobility_markerset:RTOE			Mobility_markerset:RMTP5		
		X1	Y1	Z1	X2	Y2	Z2	X3	Y3	Z3	X4	Y4	Z4	X5	Y5	Z5	X6	Y6	Z6	X7	Y7	Z7	X8	Y8	Z8	X9	Y9	Z9	X10	Y10	Z10	X11	Y11	Z11	X12	Y12	Z12	X13	Y13	Z13	X14	Y14	Z14	X15	Y15	Z15	X16	Y16	Z16	X17	Y17	Z17	X18	Y18	Z18	X19	Y19	Z19	X20	Y20	Z20	X21	Y21	Z21	X22	Y22	Z22	X23	Y23	Z23	X24	Y24	Z24	X25	Y25	Z25	X26	Y26	Z26	X27	Y27	Z27	X28	Y28	Z28	X29	Y29	Z29	X30	Y30	Z30	X31	Y31	Z31	X32	Y32	Z32	X33	Y33	Z33	X34	Y34	Z34	X35	Y35	Z35	X36	Y36	Z36

1195	9.95000	0.00000	0.00000	0.00000	-4278.77197	1012.35553	581.14380	0.00000	0.00000	0.00000	0.00000	0.00000	0.00000	-4218.33594	694.34320	575.63611	-4224.30420	649.72375	561.50116	0.00000	0.00000	0.00000	-4289.50635	541.46924	398.41833	0.00000	0.00000	0.00000	0.00000	0.00000	0.00000	-4212.32031	362.61517	490.67618	-4193.63965	324.04764	484.22903	-4097.07617	104.09071	417.73709	-4112.06104	107.17881	332.42880	-4027.58179	88.05133	355.38306	-4220.50879	41.20127	468.96637	-4264.29248	60.96651	410.24347	-4258.43799	52.82820	372.56009	0.00000	0.00000	0.00000	-4453.53955	981.10571	394.16739	-4536.25391	700.04785	323.33167	-4544.55957	657.84698	325.31610	-4500.06738	681.82196	274.23651	-4514.91064	641.83105	284.92950	-4565.33252	520.91901	365.74265	0.00000	0.00000	0.00000	-4583.75049	319.11945	300.65494	-4602.16943	278.28891	304.76636	-4623.01025	334.85870	345.12750	-4636.78564	292.11404	344.14600	-4664.76465	107.55469	357.54614	0.00000	0.00000	0.00000	0.00000	0.00000	0.00000	0.00000	0.00000	0.00000	-4725.35791	133.85835	542.37689	-4766.05029	84.63673	472.48178
1196	9.95833	0.00000	0.00000	0.00000	-4284.05469	1011.78394	581.54535	0.00000	0.00000	0.00000	0.00000	0.00000	0.00000	-4224.75146	693.82086	576.12079	-4228.56592	649.01697	561.62488	0.00000	0.00000	0.00000	-4294.13184	540.78082	399.07330	0.00000	0.00000	0.00000	0.00000	0.00000	0.00000	-4215.15479	362.38651	491.04037	-4196.33545	324.12021	484.64188	-4097.80273	104.95856	417.83975	-4112.95215	107.89500	332.39413	-4027.67334	89.22737	357.00726	-4220.59277	41.08075	469.03574	-4264.46777	60.75840	410.27072	-4258.63379	52.72174	372.61429	0.00000	0.00000	0.00000	-4460.66797	981.09747	396.43573	-4543.81152	700.21014	326.00589	-4553.36816	658.39301	327.63748	-4507.46436	681.71582	277.00250	-4522.46191	641.82391	287.83493	-4570.39209	519.48633	370.21371	0.00000	0.00000	0.00000	-4586.54297	317.59161	303.08917	-4604.51025	276.54947	306.88425	-4625.90869	332.55878	347.73495	-4639.18018	289.64774	346.48489	-4665.96143	105.38244	359.34750	0.00000	0.00000	0.00000	0.00000	0.00000	0.00000	0.00000	0.00000	0.00000	-4723.16504	127.66760	546.20520	-4763.94385	79.01220	476.08054
1197	9.96667	0.00000	0.00000	0.00000	-4289.23438	1010.99884	582.28595	0.00000	0.00000	0.00000	-4184.88721	646.27985	539.19202	-4228.47559	692.92615	576.49146	-4233.60645	649.06348	562.07635	0.00000	0.00000	0.00000	-4298.99707	540.16388	399.85977	0.00000	0.00000	0.00000	0.00000	0.00000	0.00000	-4218.39551	362.37512	491.58334	-4199.03564	324.21881	485.08261	-4098.69629	105.83961	417.93430	-4113.93262	108.73168	332.42981	-4028.49658	90.96896	356.84464	-4220.70020	40.99213	469.08694	-4264.65723	60.57690	410.29242	-4258.85010	52.58735	372.71884	-4264.97412	1043.71179	278.34381	-4467.90771	981.22760	398.58475	-4551.58008	700.19812	328.63712	-4559.87402	658.02307	331.17630	-4514.68359	681.13184	280.20639	-4529.74854	641.48566	291.43866	-4575.04346	517.69739	374.44418	0.00000	0.00000	0.00000	-4589.24561	315.90070	305.52563	-4606.83398	274.68222	309.20493	-4628.63281	330.41983	350.33557	-4641.55420	287.43857	348.91547	-4667.76465	103.69024	361.61710	0.00000	0.00000	0.00000	0.00000	0.00000	0.00000	0.00000	0.00000	0.00000	-4721.82373	122.41580	550.06519	-4762.81641	74.35712	479.62634
1198	9.97500	0.00000	0.00000	0.00000	-4295.17236	1010.96759	582.30341	-4180.58203	692.45325	545.79626	0.00000	0.00000	0.00000	-4233.16650	692.66016	577.09949	-4242.33740	651.44867	565.76447	0.00000	0.00000	0.00000	-4303.97070	539.56653	400.75192	0.00000	0.00000	0.00000	0.00000	0.00000	0.00000	-4221.19385	361.94412	492.41055	-4201.96289	324.39746	485.59955	-4099.60352	106.88260	418.10181	-4115.01465	109.58334	332.60043	-4029.48486	92.86839	356.71936	-4220.86865	40.91916	469.16791	-4264.90869	60.31664	410.33893	-4259.10596	52.41742	372.83957	-4272.99756	1044.30420	278.99673	-4475.19336	981.45605	400.62421	-4559.17871	699.90668	331.23389	-4567.15332	657.70068	334.51004	-4521.79688	680.35394	283.49139	-4536.00439	640.39191	295.98962	-4579.40039	515.96680	378.01300	0.00000	0.00000	0.00000	-4592.50244	314.41321	308.09506	-4609.94189	273.10471	311.93875	-4631.83984	328.82971	352.89648	-4644.64502	285.80603	351.63309	-4670.24170	102.43385	364.02594	0.00000	0.00000	0.00000	0.00000	0.00000	0.00000	0.00000	0.00000	0.00000	-4722.46924	117.20128	553.81158	-4763.23584	69.75319	482.70697
